%
M48
M72
T01C0.0236
T02C0.0280
T03C0.0320
T04C0.0394
T05C0.0400
%
T01
X4237Y1872
X7123Y2935
X7253Y2325
X8969Y3423
X7497Y4971
X9631Y5904
X10265Y5880
X10131Y6833
X8080Y8483
X7501Y8880
X8422Y9388
X8992Y9467
X9796Y9668
X11643Y9010
X13497Y9605
X13391Y12160
X14607Y12506
X11583Y13959
X11473Y15223
X9957Y13435
X9938Y12857
X9017Y12116
X8422Y12116
X9095Y14675
X4328Y10632
X4737Y8593
X3111Y4845
X10757Y4573
X11749Y4719
X12316Y4699
X12828Y4412
X14599Y5900
X15158Y6061
X17072Y6849
X17331Y5888
X16473Y3156
X16253Y1853
X14013Y2518
X17721Y13443
X18646Y13967
X18158Y14463
T02
X5902Y14719
X5115Y14719
X5115Y13931
X5115Y13144
X5902Y13144
X5902Y13931
X5902Y12357
X5115Y12357
X5115Y11569
X5115Y10782
X5902Y10782
X5902Y11569
X5843Y5648
X5056Y5648
X5056Y4860
X5056Y4073
X5056Y3286
X5843Y3286
X5843Y4073
X5843Y4860
X5843Y2498
X5056Y2498
X5056Y1711
X5843Y1711
T03
X13631Y5148
X14631Y5148
X9414Y18400
X8414Y18400
X7414Y18400
X6414Y18400
X5414Y18400
T04
X17245Y18801
X17245Y17801
X17245Y16801
X17245Y15801
X18064Y4388
X18064Y3388
X18064Y2388
X18064Y1388
T05
X1879Y1376
X1879Y2376
X1879Y3376
X3316Y3372
X3316Y2372
X3316Y1372
X3379Y5750
X3379Y6750
X3379Y7750
X3379Y8750
X3379Y9750
X3379Y10750
X3379Y11750
X3379Y12750
X3379Y13750
X3379Y14750
X3379Y15750
X3379Y16750
X3379Y17750
X3379Y18750
X2375Y18742
X2375Y17742
X2375Y16742
X2375Y15742
X2375Y14742
X2375Y13742
X2375Y12742
X2375Y11742
X2375Y10742
X2375Y9742
X2375Y8742
X2375Y7742
X2375Y6742
X2375Y5742
X1375Y5742
X1375Y6742
X1375Y7742
X1375Y8742
X1375Y9742
X1375Y10742
X1375Y11742
X1375Y12742
X1375Y13742
X1375Y14742
X1375Y15742
X1375Y16742
X1375Y17742
X1375Y18742
X11402Y18164
X12402Y18164
X13517Y18168
X14517Y18168
M30
