G75*
G70*
%OFA0B0*%
%FSLAX24Y24*%
%IPPOS*%
%LPD*%
%AMOC8*
5,1,8,0,0,1.08239X$1,22.5*
%
%ADD10C,0.0594*%
%ADD11R,0.0480X0.0480*%
%ADD12C,0.0480*%
%ADD13R,0.0512X0.0591*%
%ADD14R,0.0630X0.0512*%
%ADD15R,0.0220X0.0470*%
%ADD16R,0.0470X0.0220*%
%ADD17C,0.0600*%
%ADD18C,0.0520*%
%ADD19R,0.0591X0.0512*%
%ADD20R,0.0600X0.0600*%
%ADD21OC8,0.0600*%
%ADD22OC8,0.0700*%
%ADD23R,0.0700X0.0700*%
%ADD24C,0.0520*%
%ADD25R,0.0984X0.0866*%
%ADD26R,0.0197X0.0787*%
%ADD27R,0.0315X0.0315*%
%ADD28R,0.0512X0.0630*%
%ADD29C,0.0100*%
%ADD30R,0.0396X0.0396*%
%ADD31C,0.0240*%
%ADD32C,0.0080*%
%ADD33C,0.0160*%
D10*
X016948Y015801D02*
X017542Y015801D01*
X017542Y016801D02*
X016948Y016801D01*
X016948Y017801D02*
X017542Y017801D01*
X017542Y018801D02*
X016948Y018801D01*
X017767Y004388D02*
X018361Y004388D01*
X018361Y003388D02*
X017767Y003388D01*
X017767Y002388D02*
X018361Y002388D01*
X018361Y001388D02*
X017767Y001388D01*
D11*
X005056Y005648D03*
X005115Y014719D03*
D12*
X005902Y014719D03*
X005902Y013931D03*
X005902Y013144D03*
X005115Y013144D03*
X005115Y013931D03*
X005115Y012357D03*
X005902Y012357D03*
X005902Y011569D03*
X005115Y011569D03*
X005115Y010782D03*
X005902Y010782D03*
X005843Y005648D03*
X005843Y004860D03*
X005843Y004073D03*
X005056Y004073D03*
X005056Y003286D03*
X005843Y003286D03*
X005843Y002498D03*
X005056Y002498D03*
X005056Y001711D03*
X005843Y001711D03*
X005056Y004860D03*
D13*
X005076Y006612D03*
X005824Y006612D03*
X002477Y004754D03*
X001729Y004754D03*
X012477Y006120D03*
X013225Y006120D03*
D14*
X015544Y003884D03*
X015544Y003136D03*
X015548Y002286D03*
X015548Y001538D03*
D15*
X015404Y007113D03*
X015094Y007113D03*
X014784Y007113D03*
X014474Y007113D03*
X014164Y007113D03*
X013854Y007113D03*
X013544Y007113D03*
X013234Y007113D03*
X012924Y007113D03*
X012614Y007113D03*
X012304Y007113D03*
X011994Y007113D03*
X011684Y007113D03*
X015714Y007113D03*
X016024Y007113D03*
X016334Y007113D03*
X016334Y013223D03*
X016024Y013223D03*
X015714Y013223D03*
X015404Y013223D03*
X015094Y013223D03*
X014784Y013223D03*
X014474Y013223D03*
X014164Y013223D03*
X013854Y013223D03*
X013544Y013223D03*
X013234Y013223D03*
X012924Y013223D03*
X012614Y013223D03*
X012304Y013223D03*
X011994Y013223D03*
X011684Y013223D03*
D16*
X010954Y012493D03*
X010954Y012183D03*
X010954Y011873D03*
X010954Y011563D03*
X010954Y011253D03*
X010954Y010943D03*
X010954Y010633D03*
X010954Y010323D03*
X010954Y010013D03*
X010954Y009703D03*
X010954Y009393D03*
X010954Y009083D03*
X010954Y008773D03*
X010954Y008463D03*
X010954Y008153D03*
X010954Y007843D03*
X017064Y007843D03*
X017064Y008153D03*
X017064Y008463D03*
X017064Y008773D03*
X017064Y009083D03*
X017064Y009393D03*
X017064Y009703D03*
X017064Y010013D03*
X017064Y010323D03*
X017064Y010633D03*
X017064Y010943D03*
X017064Y011253D03*
X017064Y011563D03*
X017064Y011873D03*
X017064Y012183D03*
X017064Y012493D03*
D17*
X002179Y001376D02*
X001579Y001376D01*
X001579Y002376D02*
X002179Y002376D01*
X003016Y002372D02*
X003616Y002372D01*
X003616Y001372D02*
X003016Y001372D01*
X003016Y003372D02*
X003616Y003372D01*
X002179Y003376D02*
X001579Y003376D01*
X011402Y017864D02*
X011402Y018464D01*
X012402Y018464D02*
X012402Y017864D01*
X013517Y017868D02*
X013517Y018468D01*
X014517Y018468D02*
X014517Y017868D01*
D18*
X009414Y018140D02*
X009414Y018660D01*
X008414Y018660D02*
X008414Y018140D01*
X007414Y018140D02*
X007414Y018660D01*
X006414Y018660D02*
X006414Y018140D01*
X005414Y018140D02*
X005414Y018660D01*
D19*
X006847Y014868D03*
X006847Y014120D03*
D20*
X001375Y018742D03*
D21*
X001375Y017742D03*
X001375Y016742D03*
X001375Y015742D03*
X001375Y014742D03*
X001375Y013742D03*
X001375Y012742D03*
X001375Y011742D03*
X001375Y010742D03*
X001375Y009742D03*
X001375Y008742D03*
X001375Y007742D03*
X001375Y006742D03*
X001375Y005742D03*
X002375Y005742D03*
X002375Y006742D03*
X002375Y007742D03*
X002375Y008742D03*
X002375Y009742D03*
X002375Y010742D03*
X002375Y011742D03*
X002375Y012742D03*
X002375Y013742D03*
X002375Y014742D03*
X002375Y015742D03*
X002375Y016742D03*
X002375Y017742D03*
X002375Y018742D03*
D22*
X003379Y018750D03*
X003379Y017750D03*
X003379Y016750D03*
X003379Y015750D03*
X003379Y014750D03*
X003379Y013750D03*
X003379Y012750D03*
X003379Y011750D03*
X003379Y010750D03*
X003379Y009750D03*
X003379Y008750D03*
X003379Y007750D03*
X003379Y006750D03*
D23*
X003379Y005750D03*
D24*
X013631Y005148D03*
X014631Y005148D03*
D25*
X013103Y003640D03*
X013103Y001553D03*
X009796Y001553D03*
X009796Y003640D03*
D26*
X010820Y003738D03*
X011135Y003738D03*
X011450Y003738D03*
X011765Y003738D03*
X012080Y003738D03*
D27*
X018087Y010455D03*
X018678Y010455D03*
X018678Y011412D03*
X018087Y011412D03*
X018087Y012364D03*
X018678Y012364D03*
D28*
X018595Y009679D03*
X017847Y009679D03*
X017835Y008790D03*
X018583Y008790D03*
X018603Y007908D03*
X017855Y007908D03*
D29*
X017300Y008463D01*
X017064Y008463D01*
X017064Y008773D02*
X017818Y008773D01*
X017835Y008790D01*
X017365Y009083D02*
X017670Y009388D01*
X017670Y009502D01*
X017847Y009679D01*
X018595Y009679D02*
X018678Y009679D01*
X018678Y010455D01*
X018087Y010455D02*
X018087Y011412D01*
X018087Y012364D01*
X018048Y012742D01*
X017721Y013443D01*
X017776Y013841D02*
X017170Y013841D01*
X017091Y013762D01*
X017091Y013105D01*
X016316Y012329D01*
X016316Y012282D01*
X015094Y011060D01*
X015094Y007113D01*
X015404Y007113D02*
X015404Y007763D01*
X015843Y008203D01*
X016146Y008203D01*
X017072Y007278D01*
X017072Y006849D01*
X016643Y006396D02*
X016643Y007345D01*
X016648Y007351D01*
X016288Y007711D01*
X015906Y007711D01*
X015714Y007518D01*
X015714Y007113D01*
X016009Y007098D02*
X016024Y007113D01*
X016009Y007098D02*
X016009Y006786D01*
X016017Y006778D01*
X016017Y005581D01*
X015146Y004711D01*
X013398Y004711D01*
X012772Y005337D01*
X009595Y005337D01*
X007083Y002825D01*
X007123Y002935D01*
X007253Y002325D02*
X010048Y005120D01*
X012702Y005120D01*
X013343Y004479D01*
X015206Y004479D01*
X016328Y005601D01*
X016328Y006758D01*
X016334Y006764D01*
X016334Y007113D01*
X016643Y006396D02*
X017115Y006053D01*
X017331Y005888D01*
X018603Y007908D02*
X018906Y007908D01*
X019198Y008211D01*
X019198Y011809D01*
X018678Y012364D01*
X018678Y011412D02*
X019009Y011077D01*
X019009Y008986D01*
X018828Y008778D01*
X018595Y008778D01*
X018583Y008790D01*
X017365Y009083D02*
X017064Y009083D01*
X014784Y007113D02*
X014784Y011112D01*
X016845Y013173D01*
X016845Y013811D01*
X017497Y014463D01*
X018158Y014463D01*
X018371Y014675D01*
X018371Y018018D01*
X017587Y018801D01*
X017245Y018801D01*
X017245Y015801D02*
X017131Y015801D01*
X015087Y013758D01*
X015087Y013229D01*
X015094Y013223D01*
X015094Y012879D01*
X014706Y012490D01*
X014611Y012490D01*
X014603Y012498D01*
X014599Y012498D01*
X014474Y013223D02*
X014474Y015695D01*
X013552Y016616D01*
X005206Y016616D01*
X004087Y017734D01*
X003379Y017750D01*
X003379Y016750D02*
X003398Y016742D01*
X004753Y016742D01*
X005115Y016380D01*
X013406Y016380D01*
X014164Y015623D01*
X014164Y013223D01*
X013859Y013228D02*
X013854Y013223D01*
X013859Y013228D02*
X013859Y015585D01*
X013316Y016128D01*
X005060Y016128D01*
X004682Y016506D01*
X004139Y016506D01*
X003391Y015758D01*
X003379Y015750D01*
X003957Y015967D02*
X003957Y015494D01*
X003391Y014927D01*
X003379Y014750D01*
X003957Y015152D02*
X003957Y014301D01*
X003379Y013750D01*
X004064Y013975D02*
X004064Y012616D01*
X005111Y011569D01*
X005115Y011569D01*
X004328Y010632D02*
X004607Y010349D01*
X004607Y010341D01*
X006072Y010341D01*
X007849Y012118D01*
X007851Y012116D01*
X008422Y012116D01*
X007662Y011553D02*
X006087Y009979D01*
X004292Y009979D01*
X003938Y010333D01*
X003938Y012191D01*
X003379Y012750D01*
X003379Y011750D02*
X002875Y011219D01*
X002875Y008483D01*
X003146Y008238D01*
X003650Y008238D01*
X004446Y009006D01*
X006615Y009006D01*
X007931Y010323D01*
X010954Y010323D01*
X010954Y010633D02*
X007899Y010633D01*
X006524Y009258D01*
X003914Y009258D01*
X003379Y008750D01*
X003725Y008069D02*
X010461Y008069D01*
X010545Y008153D01*
X010954Y008153D01*
X010950Y008156D01*
X010948Y007849D02*
X010954Y007843D01*
X010948Y007849D02*
X004249Y007849D01*
X003391Y006990D01*
X003379Y006750D01*
X003977Y006585D02*
X003977Y007183D01*
X004410Y007616D01*
X010139Y007616D01*
X010642Y007113D01*
X011684Y007113D01*
X011994Y007113D02*
X012032Y007074D01*
X012032Y006695D01*
X011615Y006278D01*
X007662Y006278D01*
X006245Y004860D01*
X005843Y004860D01*
X005843Y004073D02*
X007662Y005892D01*
X009619Y005892D01*
X009631Y005904D01*
X010757Y004573D02*
X010820Y004557D01*
X011123Y004490D02*
X011300Y004668D01*
X011749Y004719D01*
X011548Y004360D02*
X012032Y004360D01*
X012237Y004565D01*
X012316Y004699D01*
X012698Y004412D02*
X012080Y003738D01*
X012095Y003786D01*
X011434Y003790D02*
X011434Y004246D01*
X011548Y004360D01*
X011123Y004490D02*
X011123Y003790D01*
X011123Y003782D01*
X011434Y003790D02*
X011434Y003786D01*
X012698Y004412D02*
X012828Y004412D01*
X013631Y005148D02*
X013631Y005656D01*
X013745Y005770D01*
X013745Y006443D01*
X013572Y006616D01*
X013572Y007085D01*
X013544Y007113D01*
X013237Y007116D02*
X013234Y007113D01*
X013229Y007108D01*
X013225Y006120D01*
X012477Y006120D02*
X012477Y005951D01*
X012614Y007113D02*
X012614Y008047D01*
X011650Y009010D01*
X011643Y009010D01*
X010954Y009083D02*
X008728Y009083D01*
X008422Y009388D01*
X008422Y008880D02*
X008530Y008773D01*
X010954Y008773D01*
X010954Y008463D02*
X008099Y008463D01*
X008080Y008483D01*
X008422Y008880D02*
X007501Y008880D01*
X006776Y008790D02*
X004934Y008790D01*
X004737Y008593D01*
X003725Y008069D02*
X003379Y007750D01*
X003977Y006585D02*
X003391Y005998D01*
X003379Y005750D01*
X004591Y006412D02*
X004591Y002916D01*
X004591Y002845D01*
X004595Y002868D02*
X004662Y002868D01*
X005032Y002498D01*
X005056Y002498D01*
X004595Y002868D02*
X002568Y002868D01*
X002076Y002376D01*
X001879Y002376D01*
X004237Y001872D02*
X004796Y001191D01*
X006528Y001191D01*
X006532Y001187D01*
X007005Y001187D01*
X008969Y003152D01*
X008969Y003423D01*
X007497Y004553D02*
X007497Y004971D01*
X007497Y004553D02*
X006229Y003286D01*
X005843Y003286D01*
X005843Y005648D02*
X005843Y006616D01*
X005843Y006812D01*
X005954Y006821D02*
X005824Y006612D01*
X005076Y006612D02*
X005103Y005695D01*
X005056Y005648D01*
X004591Y006412D02*
X005076Y006612D01*
X006776Y008790D02*
X007999Y010013D01*
X010954Y010013D01*
X010954Y009703D02*
X010919Y009668D01*
X009796Y009668D01*
X010300Y009297D02*
X009127Y009297D01*
X008992Y009467D01*
X010300Y009297D02*
X010395Y009393D01*
X010954Y009393D01*
X010954Y009083D02*
X010952Y009081D01*
X010950Y010939D02*
X010954Y010943D01*
X010950Y010939D02*
X007824Y010939D01*
X006398Y009514D01*
X003615Y009514D01*
X003379Y009750D01*
X004123Y009766D02*
X003379Y010510D01*
X003379Y010750D01*
X004123Y009766D02*
X006198Y009766D01*
X007684Y011253D01*
X010954Y011253D01*
X010944Y011553D02*
X010954Y011563D01*
X010944Y011553D02*
X007662Y011553D01*
X009938Y012620D02*
X010698Y011860D01*
X010942Y011860D01*
X010954Y011873D01*
X010954Y012183D02*
X010722Y012183D01*
X010335Y012569D01*
X010335Y013057D01*
X009957Y013435D01*
X009938Y012857D02*
X009938Y012620D01*
X011347Y013219D02*
X011680Y013219D01*
X011684Y013223D01*
X011994Y013223D02*
X011994Y013549D01*
X011583Y013959D01*
X011347Y013219D02*
X010446Y014120D01*
X006847Y014120D01*
X006501Y014120D01*
X005902Y014719D01*
X005619Y015223D02*
X006465Y015223D01*
X006847Y014868D01*
X007005Y014683D01*
X007013Y014675D01*
X009095Y014675D01*
X011473Y015223D02*
X012614Y014082D01*
X012614Y013223D01*
X012304Y013223D02*
X012304Y012502D01*
X012028Y012227D01*
X011695Y012227D01*
X011684Y012238D01*
X012924Y012705D02*
X013391Y012160D01*
X012924Y012705D02*
X012924Y013223D01*
X013234Y013223D02*
X013234Y015380D01*
X012902Y015711D01*
X004517Y015711D01*
X003957Y015152D01*
X003957Y015967D02*
X004265Y016274D01*
X004627Y016274D01*
X004973Y015927D01*
X013099Y015927D01*
X013544Y015483D01*
X013544Y013223D01*
X014780Y013226D02*
X014780Y015711D01*
X013658Y016833D01*
X005292Y016833D01*
X003379Y018750D01*
X005619Y015223D02*
X005115Y014719D01*
X004808Y014719D01*
X004064Y013975D01*
X012918Y007107D02*
X012924Y007113D01*
X013237Y007116D02*
X013237Y007601D01*
X013497Y007860D01*
X013497Y009605D01*
X013854Y007113D02*
X013854Y006614D01*
X013954Y006514D01*
X013954Y005825D01*
X014631Y005148D01*
X014599Y005900D02*
X014164Y006292D01*
X014164Y007113D01*
X014474Y007113D02*
X014474Y006762D01*
X015158Y006061D01*
X015371Y003884D02*
X015398Y003884D01*
X015544Y003884D01*
X015544Y003136D02*
X016473Y003136D01*
X016473Y003156D01*
X016473Y003136D02*
X016934Y003136D01*
X017682Y002388D01*
X018064Y002388D01*
X017859Y001593D02*
X018064Y001388D01*
X017859Y001593D02*
X016131Y001593D01*
X016253Y001853D01*
X016131Y001593D02*
X015548Y001538D01*
X015548Y002286D02*
X015430Y002341D01*
X015477Y002341D02*
X015548Y002286D01*
X014859Y003038D01*
X014855Y003038D01*
X014684Y003209D01*
X014676Y003236D01*
X014784Y013223D02*
X014780Y013226D01*
X017776Y013841D02*
X017902Y013967D01*
X018001Y013967D01*
X018032Y013967D02*
X018048Y013967D01*
X018646Y013967D01*
D30*
X018646Y013967D03*
X018158Y014463D03*
X017721Y013443D03*
X014607Y012506D03*
X013391Y012160D03*
X011583Y013959D03*
X011473Y015223D03*
X009957Y013435D03*
X009938Y012857D03*
X009017Y012116D03*
X008422Y012116D03*
X009796Y009668D03*
X008992Y009467D03*
X008422Y009388D03*
X008080Y008483D03*
X007501Y008880D03*
X010131Y006833D03*
X010265Y005880D03*
X009631Y005904D03*
X010757Y004573D03*
X011749Y004719D03*
X012316Y004699D03*
X012828Y004412D03*
X014599Y005900D03*
X015158Y006061D03*
X017072Y006849D03*
X017331Y005888D03*
X016473Y003156D03*
X016253Y001853D03*
X014013Y002518D03*
X008969Y003423D03*
X007497Y004971D03*
X007123Y002935D03*
X007253Y002325D03*
X004237Y001872D03*
X003111Y004845D03*
X004737Y008593D03*
X004328Y010632D03*
X009095Y014675D03*
X013497Y009605D03*
X011643Y009010D03*
D31*
X002477Y004754D02*
X002477Y004557D01*
X001879Y003959D01*
X001879Y003376D01*
X000997Y003380D02*
X000997Y002876D01*
X001497Y002376D01*
X001879Y002376D01*
X000997Y003333D02*
X000997Y004762D01*
X001005Y004754D01*
X001729Y004754D01*
X000997Y004762D02*
X000997Y005364D01*
X001375Y005742D01*
X001375Y006742D01*
X001375Y018742D01*
X002375Y018742D02*
X002375Y017742D01*
X002375Y016742D01*
X002375Y015742D01*
X002375Y014742D01*
X002375Y013742D01*
X002375Y012742D02*
X002375Y011742D01*
X002375Y010742D01*
X002375Y009742D01*
X002375Y008742D01*
X002375Y007742D01*
X002375Y006742D01*
X002375Y005742D01*
X000989Y003388D02*
X000997Y003380D01*
D32*
X004591Y002916D02*
X004595Y002916D01*
X004595Y002868D01*
X005824Y006612D02*
X005828Y006616D01*
X005843Y006616D01*
X002379Y007742D02*
X002375Y007742D01*
X002375Y008742D02*
X002379Y008742D01*
X002375Y009742D02*
X002379Y009742D01*
X002375Y010742D02*
X002379Y010742D01*
X002375Y011742D02*
X002379Y011742D01*
X002375Y014742D02*
X002379Y014742D01*
X002375Y015742D02*
X002379Y015742D01*
X002375Y016742D02*
X002379Y016742D01*
X002375Y017742D02*
X002379Y017742D01*
X011123Y003790D02*
X011127Y003790D01*
X011135Y003738D01*
X011434Y003790D02*
X011442Y003790D01*
X011450Y003738D01*
X018001Y013967D02*
X018044Y013971D01*
X018048Y013967D01*
X018048Y013971D01*
D33*
X017552Y015034D02*
X018095Y015577D01*
X018095Y015951D01*
X017245Y016801D01*
X017552Y015034D02*
X016808Y015034D01*
X015404Y013629D01*
X015404Y013223D01*
X015404Y012145D01*
X014032Y010774D01*
X011707Y010774D01*
X011684Y010750D01*
X011684Y012238D01*
X011684Y013223D01*
X011684Y010750D02*
X011684Y010166D01*
X012926Y008923D01*
X012926Y007115D01*
X012924Y007113D01*
X012924Y006831D01*
X012690Y006597D01*
X012690Y006333D01*
X012477Y006120D01*
X012237Y005880D01*
X010265Y005880D01*
X010119Y006821D02*
X010131Y006833D01*
X010119Y006821D02*
X005954Y006821D01*
X005843Y006812D02*
X005488Y007168D01*
X004737Y007168D01*
X004249Y006679D01*
X004249Y004305D01*
X003316Y003372D01*
X003111Y004845D02*
X002977Y004979D01*
X002977Y005132D01*
X002835Y005274D01*
X002107Y005274D01*
X001879Y005502D01*
X001879Y013006D01*
X002375Y013502D01*
X002375Y013742D01*
X010757Y004573D02*
X010757Y003786D01*
X010820Y003738D01*
X013957Y002518D02*
X014676Y003236D01*
X015091Y003652D01*
X015339Y003754D01*
X015544Y003884D01*
X016851Y003884D01*
X017402Y003333D01*
X017737Y003333D01*
X018064Y003388D01*
X015398Y003782D02*
X015398Y003884D01*
X014013Y002518D02*
X013957Y002518D01*
M02*
