G75*
G70*
%OFA0B0*%
%FSLAX24Y24*%
%IPPOS*%
%LPD*%
%AMOC8*
5,1,8,0,0,1.08239X$1,22.5*
%
%ADD10C,0.0712*%
%ADD11R,0.0576X0.0576*%
%ADD12C,0.0576*%
%ADD13C,0.0104*%
%ADD14C,0.0720*%
%ADD15C,0.0624*%
%ADD16C,0.0145*%
%ADD17C,0.0032*%
%ADD18R,0.0720X0.0720*%
%ADD19OC8,0.0720*%
%ADD20OC8,0.0840*%
%ADD21R,0.0840X0.0840*%
%ADD22C,0.0080*%
%ADD23C,0.0624*%
%ADD24R,0.0475X0.0475*%
D10*
X016948Y015801D02*
X017542Y015801D01*
X017542Y016801D02*
X016948Y016801D01*
X016948Y017801D02*
X017542Y017801D01*
X017542Y018801D02*
X016948Y018801D01*
X017767Y004388D02*
X018361Y004388D01*
X018361Y003388D02*
X017767Y003388D01*
X017767Y002388D02*
X018361Y002388D01*
X018361Y001388D02*
X017767Y001388D01*
D11*
X005056Y005648D03*
X005115Y014719D03*
D12*
X005902Y014719D03*
X005902Y013931D03*
X005902Y013144D03*
X005115Y013144D03*
X005115Y013931D03*
X005115Y012357D03*
X005902Y012357D03*
X005902Y011569D03*
X005115Y011569D03*
X005115Y010782D03*
X005902Y010782D03*
X005843Y005648D03*
X005843Y004860D03*
X005843Y004073D03*
X005056Y004073D03*
X005056Y003286D03*
X005843Y003286D03*
X005843Y002498D03*
X005056Y002498D03*
X005056Y001711D03*
X005843Y001711D03*
X005056Y004860D03*
D13*
X010443Y006980D02*
X010953Y006980D01*
X010443Y006980D02*
X010443Y007568D01*
X010953Y007568D01*
X010953Y006980D01*
X010953Y007083D02*
X010443Y007083D01*
X010443Y007186D02*
X010953Y007186D01*
X010953Y007289D02*
X010443Y007289D01*
X010443Y007392D02*
X010953Y007392D01*
X010953Y007495D02*
X010443Y007495D01*
X011191Y006980D02*
X011701Y006980D01*
X011191Y006980D02*
X011191Y007568D01*
X011701Y007568D01*
X011701Y006980D01*
X011701Y007083D02*
X011191Y007083D01*
X011191Y007186D02*
X011701Y007186D01*
X011701Y007289D02*
X011191Y007289D01*
X011191Y007392D02*
X011701Y007392D01*
X011701Y007495D02*
X011191Y007495D01*
X013845Y008609D02*
X013845Y009119D01*
X014433Y009119D01*
X014433Y008609D01*
X013845Y008609D01*
X013845Y008712D02*
X014433Y008712D01*
X014433Y008815D02*
X013845Y008815D01*
X013845Y008918D02*
X014433Y008918D01*
X014433Y009021D02*
X013845Y009021D01*
X013845Y009357D02*
X013845Y009867D01*
X014433Y009867D01*
X014433Y009357D01*
X013845Y009357D01*
X013845Y009460D02*
X014433Y009460D01*
X014433Y009563D02*
X013845Y009563D01*
X013845Y009666D02*
X014433Y009666D01*
X014433Y009769D02*
X013845Y009769D01*
X014448Y010212D02*
X014448Y010722D01*
X014448Y010212D02*
X013860Y010212D01*
X013860Y010722D01*
X014448Y010722D01*
X014448Y010315D02*
X013860Y010315D01*
X013860Y010418D02*
X014448Y010418D01*
X014448Y010521D02*
X013860Y010521D01*
X013860Y010624D02*
X014448Y010624D01*
X014448Y010960D02*
X014448Y011470D01*
X014448Y010960D02*
X013860Y010960D01*
X013860Y011470D01*
X014448Y011470D01*
X014448Y011063D02*
X013860Y011063D01*
X013860Y011166D02*
X014448Y011166D01*
X014448Y011269D02*
X013860Y011269D01*
X013860Y011372D02*
X014448Y011372D01*
X013527Y011474D02*
X013527Y010964D01*
X012939Y010964D01*
X012939Y011474D01*
X013527Y011474D01*
X013527Y011067D02*
X012939Y011067D01*
X012939Y011170D02*
X013527Y011170D01*
X013527Y011273D02*
X012939Y011273D01*
X012939Y011376D02*
X013527Y011376D01*
X013527Y010726D02*
X013527Y010216D01*
X012939Y010216D01*
X012939Y010726D01*
X013527Y010726D01*
X013527Y010319D02*
X012939Y010319D01*
X012939Y010422D02*
X013527Y010422D01*
X013527Y010525D02*
X012939Y010525D01*
X012939Y010628D02*
X013527Y010628D01*
X012961Y012470D02*
X012451Y012470D01*
X012961Y012470D02*
X012961Y011842D01*
X012451Y011842D01*
X012451Y012470D01*
X012451Y011945D02*
X012961Y011945D01*
X012961Y012048D02*
X012451Y012048D01*
X012451Y012151D02*
X012961Y012151D01*
X012961Y012254D02*
X012451Y012254D01*
X012451Y012357D02*
X012961Y012357D01*
X012961Y012460D02*
X012451Y012460D01*
X012212Y012470D02*
X011702Y012470D01*
X012212Y012470D02*
X012212Y011842D01*
X011702Y011842D01*
X011702Y012470D01*
X011702Y011945D02*
X012212Y011945D01*
X012212Y012048D02*
X011702Y012048D01*
X011702Y012151D02*
X012212Y012151D01*
X012212Y012254D02*
X011702Y012254D01*
X011702Y012357D02*
X012212Y012357D01*
X012212Y012460D02*
X011702Y012460D01*
X009470Y014448D02*
X009470Y014958D01*
X010098Y014958D01*
X010098Y014448D01*
X009470Y014448D01*
X009470Y014551D02*
X010098Y014551D01*
X010098Y014654D02*
X009470Y014654D01*
X009470Y014757D02*
X010098Y014757D01*
X010098Y014860D02*
X009470Y014860D01*
X009470Y015196D02*
X009470Y015706D01*
X010098Y015706D01*
X010098Y015196D01*
X009470Y015196D01*
X009470Y015299D02*
X010098Y015299D01*
X010098Y015402D02*
X009470Y015402D01*
X009470Y015505D02*
X010098Y015505D01*
X010098Y015608D02*
X009470Y015608D01*
X010083Y016161D02*
X010083Y016671D01*
X010083Y016161D02*
X009455Y016161D01*
X009455Y016671D01*
X010083Y016671D01*
X010083Y016264D02*
X009455Y016264D01*
X009455Y016367D02*
X010083Y016367D01*
X010083Y016470D02*
X009455Y016470D01*
X009455Y016573D02*
X010083Y016573D01*
X010083Y016909D02*
X010083Y017419D01*
X010083Y016909D02*
X009455Y016909D01*
X009455Y017419D01*
X010083Y017419D01*
X010083Y017012D02*
X009455Y017012D01*
X009455Y017115D02*
X010083Y017115D01*
X010083Y017218D02*
X009455Y017218D01*
X009455Y017321D02*
X010083Y017321D01*
X013905Y004564D02*
X013905Y004054D01*
X013317Y004054D01*
X013317Y004564D01*
X013905Y004564D01*
X013905Y004157D02*
X013317Y004157D01*
X013317Y004260D02*
X013905Y004260D01*
X013905Y004363D02*
X013317Y004363D01*
X013317Y004466D02*
X013905Y004466D01*
X014937Y004509D02*
X014937Y003999D01*
X014349Y003999D01*
X014349Y004509D01*
X014937Y004509D01*
X014937Y004102D02*
X014349Y004102D01*
X014349Y004205D02*
X014937Y004205D01*
X014937Y004308D02*
X014349Y004308D01*
X014349Y004411D02*
X014937Y004411D01*
X014937Y003761D02*
X014937Y003251D01*
X014349Y003251D01*
X014349Y003761D01*
X014937Y003761D01*
X014937Y003354D02*
X014349Y003354D01*
X014349Y003457D02*
X014937Y003457D01*
X014937Y003560D02*
X014349Y003560D01*
X014349Y003663D02*
X014937Y003663D01*
X013905Y003816D02*
X013905Y003306D01*
X013317Y003306D01*
X013317Y003816D01*
X013905Y003816D01*
X013905Y003409D02*
X013317Y003409D01*
X013317Y003512D02*
X013905Y003512D01*
X013905Y003615D02*
X013317Y003615D01*
X013317Y003718D02*
X013905Y003718D01*
D14*
X002179Y001376D02*
X001579Y001376D01*
X001579Y002376D02*
X002179Y002376D01*
X003016Y002372D02*
X003616Y002372D01*
X003616Y001372D02*
X003016Y001372D01*
X003016Y003372D02*
X003616Y003372D01*
X002179Y003376D02*
X001579Y003376D01*
X011402Y017864D02*
X011402Y018464D01*
X012402Y018464D02*
X012402Y017864D01*
X013517Y017868D02*
X013517Y018468D01*
X014517Y018468D02*
X014517Y017868D01*
D15*
X009414Y018140D02*
X009414Y018660D01*
X008414Y018660D02*
X008414Y018140D01*
X007414Y018140D02*
X007414Y018660D01*
X006414Y018660D02*
X006414Y018140D01*
X005414Y018140D02*
X005414Y018660D01*
D16*
X010959Y016785D02*
X011665Y016785D01*
X011665Y015527D01*
X010959Y015527D01*
X010959Y016785D01*
X010959Y015671D02*
X011665Y015671D01*
X011665Y015815D02*
X010959Y015815D01*
X010959Y015959D02*
X011665Y015959D01*
X011665Y016103D02*
X010959Y016103D01*
X010959Y016247D02*
X011665Y016247D01*
X011665Y016391D02*
X010959Y016391D01*
X010959Y016535D02*
X011665Y016535D01*
X011665Y016679D02*
X010959Y016679D01*
X013164Y016785D02*
X013870Y016785D01*
X013870Y015527D01*
X013164Y015527D01*
X013164Y016785D01*
X013164Y015671D02*
X013870Y015671D01*
X013870Y015815D02*
X013164Y015815D01*
X013164Y015959D02*
X013870Y015959D01*
X013870Y016103D02*
X013164Y016103D01*
X013164Y016247D02*
X013870Y016247D01*
X013870Y016391D02*
X013164Y016391D01*
X013164Y016535D02*
X013870Y016535D01*
X013870Y016679D02*
X013164Y016679D01*
D17*
X014956Y012598D02*
X014956Y012442D01*
X014956Y012598D02*
X015546Y012598D01*
X015546Y012442D01*
X014956Y012442D01*
X014956Y012473D02*
X015546Y012473D01*
X015546Y012504D02*
X014956Y012504D01*
X014956Y012535D02*
X015546Y012535D01*
X015546Y012566D02*
X014956Y012566D01*
X014956Y012597D02*
X015546Y012597D01*
X014956Y012342D02*
X014956Y012186D01*
X014956Y012342D02*
X015546Y012342D01*
X015546Y012186D01*
X014956Y012186D01*
X014956Y012217D02*
X015546Y012217D01*
X015546Y012248D02*
X014956Y012248D01*
X014956Y012279D02*
X015546Y012279D01*
X015546Y012310D02*
X014956Y012310D01*
X014956Y012341D02*
X015546Y012341D01*
X014956Y012086D02*
X014956Y011930D01*
X014956Y012086D02*
X015546Y012086D01*
X015546Y011930D01*
X014956Y011930D01*
X014956Y011961D02*
X015546Y011961D01*
X015546Y011992D02*
X014956Y011992D01*
X014956Y012023D02*
X015546Y012023D01*
X015546Y012054D02*
X014956Y012054D01*
X014956Y012085D02*
X015546Y012085D01*
X014956Y011830D02*
X014956Y011674D01*
X014956Y011830D02*
X015546Y011830D01*
X015546Y011674D01*
X014956Y011674D01*
X014956Y011705D02*
X015546Y011705D01*
X015546Y011736D02*
X014956Y011736D01*
X014956Y011767D02*
X015546Y011767D01*
X015546Y011798D02*
X014956Y011798D01*
X014956Y011829D02*
X015546Y011829D01*
X014956Y011574D02*
X014956Y011418D01*
X014956Y011574D02*
X015546Y011574D01*
X015546Y011418D01*
X014956Y011418D01*
X014956Y011449D02*
X015546Y011449D01*
X015546Y011480D02*
X014956Y011480D01*
X014956Y011511D02*
X015546Y011511D01*
X015546Y011542D02*
X014956Y011542D01*
X014956Y011573D02*
X015546Y011573D01*
X014956Y011318D02*
X014956Y011162D01*
X014956Y011318D02*
X015546Y011318D01*
X015546Y011162D01*
X014956Y011162D01*
X014956Y011193D02*
X015546Y011193D01*
X015546Y011224D02*
X014956Y011224D01*
X014956Y011255D02*
X015546Y011255D01*
X015546Y011286D02*
X014956Y011286D01*
X014956Y011317D02*
X015546Y011317D01*
X014956Y011062D02*
X014956Y010906D01*
X014956Y011062D02*
X015546Y011062D01*
X015546Y010906D01*
X014956Y010906D01*
X014956Y010937D02*
X015546Y010937D01*
X015546Y010968D02*
X014956Y010968D01*
X014956Y010999D02*
X015546Y010999D01*
X015546Y011030D02*
X014956Y011030D01*
X014956Y011061D02*
X015546Y011061D01*
X014956Y010807D02*
X014956Y010651D01*
X014956Y010807D02*
X015546Y010807D01*
X015546Y010651D01*
X014956Y010651D01*
X014956Y010682D02*
X015546Y010682D01*
X015546Y010713D02*
X014956Y010713D01*
X014956Y010744D02*
X015546Y010744D01*
X015546Y010775D02*
X014956Y010775D01*
X014956Y010806D02*
X015546Y010806D01*
X014956Y010551D02*
X014956Y010395D01*
X014956Y010551D02*
X015546Y010551D01*
X015546Y010395D01*
X014956Y010395D01*
X014956Y010426D02*
X015546Y010426D01*
X015546Y010457D02*
X014956Y010457D01*
X014956Y010488D02*
X015546Y010488D01*
X015546Y010519D02*
X014956Y010519D01*
X014956Y010550D02*
X015546Y010550D01*
X014956Y010295D02*
X014956Y010139D01*
X014956Y010295D02*
X015546Y010295D01*
X015546Y010139D01*
X014956Y010139D01*
X014956Y010170D02*
X015546Y010170D01*
X015546Y010201D02*
X014956Y010201D01*
X014956Y010232D02*
X015546Y010232D01*
X015546Y010263D02*
X014956Y010263D01*
X014956Y010294D02*
X015546Y010294D01*
X014956Y010039D02*
X014956Y009883D01*
X014956Y010039D02*
X015546Y010039D01*
X015546Y009883D01*
X014956Y009883D01*
X014956Y009914D02*
X015546Y009914D01*
X015546Y009945D02*
X014956Y009945D01*
X014956Y009976D02*
X015546Y009976D01*
X015546Y010007D02*
X014956Y010007D01*
X014956Y010038D02*
X015546Y010038D01*
X014956Y009783D02*
X014956Y009627D01*
X014956Y009783D02*
X015546Y009783D01*
X015546Y009627D01*
X014956Y009627D01*
X014956Y009658D02*
X015546Y009658D01*
X015546Y009689D02*
X014956Y009689D01*
X014956Y009720D02*
X015546Y009720D01*
X015546Y009751D02*
X014956Y009751D01*
X014956Y009782D02*
X015546Y009782D01*
X014956Y009527D02*
X014956Y009371D01*
X014956Y009527D02*
X015546Y009527D01*
X015546Y009371D01*
X014956Y009371D01*
X014956Y009402D02*
X015546Y009402D01*
X015546Y009433D02*
X014956Y009433D01*
X014956Y009464D02*
X015546Y009464D01*
X015546Y009495D02*
X014956Y009495D01*
X014956Y009526D02*
X015546Y009526D01*
X014956Y009271D02*
X014956Y009115D01*
X014956Y009271D02*
X015546Y009271D01*
X015546Y009115D01*
X014956Y009115D01*
X014956Y009146D02*
X015546Y009146D01*
X015546Y009177D02*
X014956Y009177D01*
X014956Y009208D02*
X015546Y009208D01*
X015546Y009239D02*
X014956Y009239D01*
X014956Y009270D02*
X015546Y009270D01*
X017810Y009271D02*
X017810Y009115D01*
X017810Y009271D02*
X018400Y009271D01*
X018400Y009115D01*
X017810Y009115D01*
X017810Y009146D02*
X018400Y009146D01*
X018400Y009177D02*
X017810Y009177D01*
X017810Y009208D02*
X018400Y009208D01*
X018400Y009239D02*
X017810Y009239D01*
X017810Y009270D02*
X018400Y009270D01*
X017810Y009371D02*
X017810Y009527D01*
X018400Y009527D01*
X018400Y009371D01*
X017810Y009371D01*
X017810Y009402D02*
X018400Y009402D01*
X018400Y009433D02*
X017810Y009433D01*
X017810Y009464D02*
X018400Y009464D01*
X018400Y009495D02*
X017810Y009495D01*
X017810Y009526D02*
X018400Y009526D01*
X017810Y009627D02*
X017810Y009783D01*
X018400Y009783D01*
X018400Y009627D01*
X017810Y009627D01*
X017810Y009658D02*
X018400Y009658D01*
X018400Y009689D02*
X017810Y009689D01*
X017810Y009720D02*
X018400Y009720D01*
X018400Y009751D02*
X017810Y009751D01*
X017810Y009782D02*
X018400Y009782D01*
X017810Y009883D02*
X017810Y010039D01*
X018400Y010039D01*
X018400Y009883D01*
X017810Y009883D01*
X017810Y009914D02*
X018400Y009914D01*
X018400Y009945D02*
X017810Y009945D01*
X017810Y009976D02*
X018400Y009976D01*
X018400Y010007D02*
X017810Y010007D01*
X017810Y010038D02*
X018400Y010038D01*
X017810Y010139D02*
X017810Y010295D01*
X018400Y010295D01*
X018400Y010139D01*
X017810Y010139D01*
X017810Y010170D02*
X018400Y010170D01*
X018400Y010201D02*
X017810Y010201D01*
X017810Y010232D02*
X018400Y010232D01*
X018400Y010263D02*
X017810Y010263D01*
X017810Y010294D02*
X018400Y010294D01*
X017810Y010395D02*
X017810Y010551D01*
X018400Y010551D01*
X018400Y010395D01*
X017810Y010395D01*
X017810Y010426D02*
X018400Y010426D01*
X018400Y010457D02*
X017810Y010457D01*
X017810Y010488D02*
X018400Y010488D01*
X018400Y010519D02*
X017810Y010519D01*
X017810Y010550D02*
X018400Y010550D01*
X017810Y010651D02*
X017810Y010807D01*
X018400Y010807D01*
X018400Y010651D01*
X017810Y010651D01*
X017810Y010682D02*
X018400Y010682D01*
X018400Y010713D02*
X017810Y010713D01*
X017810Y010744D02*
X018400Y010744D01*
X018400Y010775D02*
X017810Y010775D01*
X017810Y010806D02*
X018400Y010806D01*
X017810Y010906D02*
X017810Y011062D01*
X018400Y011062D01*
X018400Y010906D01*
X017810Y010906D01*
X017810Y010937D02*
X018400Y010937D01*
X018400Y010968D02*
X017810Y010968D01*
X017810Y010999D02*
X018400Y010999D01*
X018400Y011030D02*
X017810Y011030D01*
X017810Y011061D02*
X018400Y011061D01*
X017810Y011162D02*
X017810Y011318D01*
X018400Y011318D01*
X018400Y011162D01*
X017810Y011162D01*
X017810Y011193D02*
X018400Y011193D01*
X018400Y011224D02*
X017810Y011224D01*
X017810Y011255D02*
X018400Y011255D01*
X018400Y011286D02*
X017810Y011286D01*
X017810Y011317D02*
X018400Y011317D01*
X017810Y011418D02*
X017810Y011574D01*
X018400Y011574D01*
X018400Y011418D01*
X017810Y011418D01*
X017810Y011449D02*
X018400Y011449D01*
X018400Y011480D02*
X017810Y011480D01*
X017810Y011511D02*
X018400Y011511D01*
X018400Y011542D02*
X017810Y011542D01*
X017810Y011573D02*
X018400Y011573D01*
X017810Y011674D02*
X017810Y011830D01*
X018400Y011830D01*
X018400Y011674D01*
X017810Y011674D01*
X017810Y011705D02*
X018400Y011705D01*
X018400Y011736D02*
X017810Y011736D01*
X017810Y011767D02*
X018400Y011767D01*
X018400Y011798D02*
X017810Y011798D01*
X017810Y011829D02*
X018400Y011829D01*
X017810Y011930D02*
X017810Y012086D01*
X018400Y012086D01*
X018400Y011930D01*
X017810Y011930D01*
X017810Y011961D02*
X018400Y011961D01*
X018400Y011992D02*
X017810Y011992D01*
X017810Y012023D02*
X018400Y012023D01*
X018400Y012054D02*
X017810Y012054D01*
X017810Y012085D02*
X018400Y012085D01*
X017810Y012186D02*
X017810Y012342D01*
X018400Y012342D01*
X018400Y012186D01*
X017810Y012186D01*
X017810Y012217D02*
X018400Y012217D01*
X018400Y012248D02*
X017810Y012248D01*
X017810Y012279D02*
X018400Y012279D01*
X018400Y012310D02*
X017810Y012310D01*
X017810Y012341D02*
X018400Y012341D01*
X017810Y012442D02*
X017810Y012598D01*
X018400Y012598D01*
X018400Y012442D01*
X017810Y012442D01*
X017810Y012473D02*
X018400Y012473D01*
X018400Y012504D02*
X017810Y012504D01*
X017810Y012535D02*
X018400Y012535D01*
X018400Y012566D02*
X017810Y012566D01*
X017810Y012597D02*
X018400Y012597D01*
D18*
X001375Y018742D03*
D19*
X001375Y017742D03*
X001375Y016742D03*
X001375Y015742D03*
X001375Y014742D03*
X001375Y013742D03*
X001375Y012742D03*
X001375Y011742D03*
X001375Y010742D03*
X001375Y009742D03*
X001375Y008742D03*
X001375Y007742D03*
X001375Y006742D03*
X001375Y005742D03*
X002375Y005742D03*
X002375Y006742D03*
X002375Y007742D03*
X002375Y008742D03*
X002375Y009742D03*
X002375Y010742D03*
X002375Y011742D03*
X002375Y012742D03*
X002375Y013742D03*
X002375Y014742D03*
X002375Y015742D03*
X002375Y016742D03*
X002375Y017742D03*
X002375Y018742D03*
D20*
X003379Y018750D03*
X003379Y017750D03*
X003379Y016750D03*
X003379Y015750D03*
X003379Y014750D03*
X003379Y013750D03*
X003379Y012750D03*
X003379Y011750D03*
X003379Y010750D03*
X003379Y009750D03*
X003379Y008750D03*
X003379Y007750D03*
X003379Y006750D03*
D21*
X003379Y005750D03*
D22*
X011844Y014310D02*
X012236Y014310D01*
X011844Y014310D02*
X011844Y014860D01*
X012236Y014860D01*
X012236Y014310D01*
X012236Y014389D02*
X011844Y014389D01*
X011844Y014468D02*
X012236Y014468D01*
X012236Y014547D02*
X011844Y014547D01*
X011844Y014626D02*
X012236Y014626D01*
X012236Y014705D02*
X011844Y014705D01*
X011844Y014784D02*
X012236Y014784D01*
X012592Y014310D02*
X012984Y014310D01*
X012592Y014310D02*
X012592Y014860D01*
X012984Y014860D01*
X012984Y014310D01*
X012984Y014389D02*
X012592Y014389D01*
X012592Y014468D02*
X012984Y014468D01*
X012984Y014547D02*
X012592Y014547D01*
X012592Y014626D02*
X012984Y014626D01*
X012984Y014705D02*
X012592Y014705D01*
X012592Y014784D02*
X012984Y014784D01*
X012610Y013444D02*
X012218Y013444D01*
X012218Y013994D01*
X012610Y013994D01*
X012610Y013444D01*
X012610Y013523D02*
X012218Y013523D01*
X012218Y013602D02*
X012610Y013602D01*
X012610Y013681D02*
X012218Y013681D01*
X012218Y013760D02*
X012610Y013760D01*
X012610Y013839D02*
X012218Y013839D01*
X012218Y013918D02*
X012610Y013918D01*
D23*
X013631Y005148D03*
X014631Y005148D03*
D24*
X014599Y005900D03*
X015158Y006061D03*
X017072Y006849D03*
X017331Y005888D03*
X016473Y003156D03*
X016253Y001853D03*
X014013Y002518D03*
X012828Y004412D03*
X012316Y004699D03*
X011749Y004719D03*
X010757Y004573D03*
X010265Y005880D03*
X009631Y005904D03*
X010131Y006833D03*
X008080Y008483D03*
X007501Y008880D03*
X008422Y009388D03*
X008992Y009467D03*
X009796Y009668D03*
X011643Y009010D03*
X013497Y009605D03*
X013391Y012160D03*
X014607Y012506D03*
X011583Y013959D03*
X011473Y015223D03*
X009957Y013435D03*
X009938Y012857D03*
X009017Y012116D03*
X008422Y012116D03*
X009095Y014675D03*
X004328Y010632D03*
X004737Y008593D03*
X003111Y004845D03*
X004237Y001872D03*
X007123Y002935D03*
X007253Y002325D03*
X008969Y003423D03*
X007497Y004971D03*
X017721Y013443D03*
X018646Y013967D03*
X018158Y014463D03*
M02*
