G75*
G70*
%OFA0B0*%
%FSLAX24Y24*%
%IPPOS*%
%LPD*%
%AMOC8*
5,1,8,0,0,1.08239X$1,22.5*
%
%ADD10C,0.0000*%
%ADD11C,0.0100*%
%ADD12C,0.0040*%
%ADD13C,0.0080*%
%ADD14C,0.0060*%
%ADD15C,0.0050*%
%ADD16R,0.0300X0.4200*%
%ADD17R,0.0200X0.0750*%
%ADD18R,0.0200X0.0300*%
%ADD19C,0.0070*%
%ADD20R,0.0160X0.0230*%
%ADD21C,0.0160*%
%ADD22R,0.0098X0.0098*%
D10*
X000202Y000262D02*
X000202Y019750D01*
X019690Y019750D01*
X019686Y000258D01*
X000202Y000262D01*
D11*
X000875Y005242D02*
X002875Y005242D01*
X002875Y019242D01*
X001875Y019242D01*
X001875Y018242D01*
X000875Y018242D01*
X000875Y019242D01*
X001875Y019242D01*
X002879Y019250D02*
X002879Y006250D01*
X003879Y006250D01*
X003879Y019250D01*
X002879Y019250D01*
X000875Y018242D02*
X000875Y005242D01*
X002879Y005250D02*
X003879Y005250D01*
X003879Y006250D01*
X002879Y006250D02*
X002879Y005250D01*
X010902Y017014D02*
X010902Y018164D01*
X010902Y019314D01*
X011152Y019314D01*
X011152Y019064D01*
X011652Y019064D01*
X011652Y019314D01*
X012152Y019314D01*
X012152Y019064D01*
X012652Y019064D01*
X012652Y019314D01*
X012902Y019314D01*
X011902Y019314D01*
X011652Y019314D02*
X011152Y019314D01*
X011502Y017614D02*
X011402Y017414D01*
X011402Y017014D01*
X011502Y017014D02*
X011502Y017414D01*
X011402Y017414D01*
X011502Y017414D02*
X012302Y017414D01*
X012302Y017014D01*
X012402Y017014D02*
X012402Y017414D01*
X012302Y017614D01*
X011502Y017614D01*
X011902Y017014D02*
X012402Y017014D01*
X012902Y017014D01*
X012902Y018164D01*
X012902Y019314D01*
X013017Y019318D02*
X013267Y019318D01*
X013267Y019068D01*
X013767Y019068D01*
X013767Y019318D01*
X014267Y019318D01*
X014267Y019068D01*
X014767Y019068D01*
X014767Y019318D01*
X015017Y019318D01*
X014017Y019318D01*
X013767Y019318D02*
X013267Y019318D01*
X013017Y019318D02*
X013017Y018168D01*
X013017Y017018D01*
X013517Y017018D02*
X013517Y017418D01*
X013617Y017618D01*
X014417Y017618D01*
X014517Y017418D01*
X014417Y017418D01*
X014417Y017018D01*
X014517Y017018D02*
X014517Y017418D01*
X014417Y017418D02*
X013617Y017418D01*
X013617Y017018D01*
X014017Y017018D02*
X014517Y017018D01*
X015017Y017018D01*
X015017Y018168D01*
X015017Y019318D01*
X015995Y019301D02*
X016745Y019301D01*
X016745Y015301D01*
X015995Y015301D01*
X015995Y019301D01*
X016745Y019301D02*
X018495Y019301D01*
X018495Y015301D01*
X016745Y015301D01*
X013617Y017418D02*
X013517Y017418D01*
X012402Y017414D02*
X012302Y017414D01*
X016814Y004888D02*
X018564Y004888D01*
X018564Y000888D01*
X016814Y000888D01*
X016814Y004888D01*
X018564Y004888D02*
X019314Y004888D01*
X019314Y000888D01*
X018564Y000888D01*
D12*
X015926Y000593D02*
X015619Y000593D01*
X015772Y000593D02*
X015772Y001053D01*
X015619Y000900D01*
X015465Y000977D02*
X015465Y000823D01*
X015389Y000746D01*
X015159Y000746D01*
X015159Y000593D02*
X015159Y001053D01*
X015389Y001053D01*
X015465Y000977D01*
X015312Y000746D02*
X015465Y000593D01*
X013312Y001335D02*
X012970Y001335D01*
X013163Y001550D02*
X013163Y001561D01*
X013164Y001561D02*
X013166Y001578D01*
X013171Y001595D01*
X013179Y001610D01*
X013190Y001623D01*
X013203Y001634D01*
X013218Y001642D01*
X013235Y001647D01*
X013252Y001649D01*
X013312Y001649D01*
X013327Y001651D01*
X013341Y001656D01*
X013353Y001663D01*
X013364Y001674D01*
X013371Y001686D01*
X013376Y001700D01*
X013378Y001715D01*
X013379Y001715D02*
X013379Y001715D01*
X013378Y001716D02*
X013377Y001729D01*
X013372Y001742D01*
X013365Y001753D01*
X013355Y001763D01*
X013344Y001770D01*
X013331Y001775D01*
X013318Y001776D01*
X012948Y001776D01*
X012948Y000352D01*
X009951Y000352D01*
X009951Y003857D01*
X010448Y003857D01*
X010470Y003855D01*
X010492Y003850D01*
X010513Y003841D01*
X010532Y003830D01*
X010549Y003815D01*
X010564Y003798D01*
X010575Y003779D01*
X010584Y003758D01*
X010589Y003736D01*
X010591Y003714D01*
X010591Y003713D02*
X010591Y003504D01*
X009951Y003415D02*
X009581Y003415D01*
X009568Y003417D01*
X009555Y003421D01*
X009543Y003428D01*
X009533Y003438D01*
X009526Y003450D01*
X009521Y003463D01*
X009520Y003476D01*
X009521Y003476D02*
X009521Y003476D01*
X009523Y003491D01*
X009528Y003505D01*
X009535Y003517D01*
X009546Y003528D01*
X009558Y003535D01*
X009572Y003540D01*
X009587Y003542D01*
X009648Y003542D01*
X009648Y003543D02*
X009665Y003545D01*
X009682Y003550D01*
X009697Y003558D01*
X009710Y003569D01*
X009721Y003582D01*
X009729Y003597D01*
X009734Y003614D01*
X009736Y003631D01*
X009736Y003642D01*
X009734Y003659D01*
X009729Y003676D01*
X009721Y003691D01*
X009710Y003704D01*
X009697Y003715D01*
X009682Y003723D01*
X009665Y003728D01*
X009648Y003730D01*
X009581Y003730D01*
X009567Y003732D01*
X009555Y003736D01*
X009543Y003743D01*
X009533Y003753D01*
X009526Y003765D01*
X009522Y003777D01*
X009520Y003791D01*
X009521Y003791D02*
X009523Y003806D01*
X009528Y003820D01*
X009535Y003832D01*
X009546Y003843D01*
X009558Y003850D01*
X009572Y003855D01*
X009587Y003857D01*
X009957Y003857D01*
X009973Y002483D02*
X010249Y002483D01*
X010250Y002482D02*
X010262Y002481D01*
X010273Y002477D01*
X010283Y002470D01*
X010291Y002461D01*
X010297Y002450D01*
X010299Y002438D01*
X010299Y002439D02*
X010387Y001097D01*
X010389Y001079D01*
X010394Y001061D01*
X010403Y001045D01*
X010415Y001030D01*
X010429Y001018D01*
X010445Y001009D01*
X010463Y001003D01*
X010481Y001001D01*
X010500Y001002D01*
X010518Y001007D01*
X010534Y001015D01*
X010549Y001026D01*
X010562Y001040D01*
X010571Y001056D01*
X010578Y001073D01*
X010581Y001092D01*
X010580Y001092D02*
X010669Y002427D01*
X010669Y002428D02*
X010671Y002442D01*
X010677Y002454D01*
X010686Y002466D01*
X010696Y002474D01*
X010709Y002480D01*
X010723Y002483D01*
X010737Y002482D01*
X010750Y002478D01*
X010762Y002471D01*
X010772Y002461D01*
X010780Y002450D01*
X010784Y002436D01*
X010785Y002422D01*
X010718Y000976D01*
X010718Y000959D01*
X010716Y000937D01*
X010711Y000916D01*
X010703Y000896D01*
X010692Y000878D01*
X010678Y000861D01*
X010661Y000847D01*
X010643Y000836D01*
X010623Y000828D01*
X010602Y000823D01*
X010580Y000821D01*
X009973Y000821D01*
X009951Y001335D02*
X009581Y001335D01*
X009568Y001336D01*
X009555Y001341D01*
X009544Y001348D01*
X009534Y001358D01*
X009527Y001369D01*
X009522Y001382D01*
X009521Y001395D01*
X009521Y001395D01*
X009523Y001410D01*
X009528Y001424D01*
X009535Y001436D01*
X009546Y001447D01*
X009558Y001454D01*
X009572Y001459D01*
X009587Y001461D01*
X009587Y001462D02*
X009648Y001462D01*
X009665Y001464D01*
X009682Y001469D01*
X009697Y001477D01*
X009710Y001488D01*
X009721Y001501D01*
X009729Y001516D01*
X009734Y001533D01*
X009736Y001550D01*
X009736Y001561D01*
X009734Y001578D01*
X009729Y001595D01*
X009721Y001610D01*
X009710Y001623D01*
X009697Y001634D01*
X009682Y001642D01*
X009665Y001647D01*
X009648Y001649D01*
X009581Y001649D01*
X009567Y001651D01*
X009555Y001655D01*
X009543Y001662D01*
X009533Y001672D01*
X009526Y001684D01*
X009522Y001696D01*
X009520Y001710D01*
X009521Y001710D02*
X009523Y001725D01*
X009528Y001739D01*
X009535Y001751D01*
X009546Y001762D01*
X009558Y001769D01*
X009572Y001774D01*
X009587Y001776D01*
X009929Y001776D01*
X011022Y002466D02*
X010939Y000882D01*
X010940Y000868D01*
X010945Y000855D01*
X010953Y000844D01*
X010963Y000835D01*
X010976Y000829D01*
X010989Y000826D01*
X011003Y000827D01*
X011016Y000832D01*
X011027Y000840D01*
X011036Y000850D01*
X011042Y000863D01*
X011045Y000876D01*
X011044Y000877D02*
X011110Y002102D01*
X011112Y002126D01*
X011117Y002150D01*
X011125Y002173D01*
X011137Y002194D01*
X011152Y002214D01*
X011169Y002231D01*
X011189Y002246D01*
X011210Y002258D01*
X011233Y002266D01*
X011257Y002271D01*
X011281Y002273D01*
X011629Y002273D01*
X011653Y002271D01*
X011676Y002266D01*
X011698Y002258D01*
X011719Y002247D01*
X011738Y002232D01*
X011754Y002216D01*
X011769Y002197D01*
X011780Y002176D01*
X011788Y002154D01*
X011793Y002131D01*
X011795Y002107D01*
X011795Y002080D01*
X011850Y000882D01*
X011852Y000869D01*
X011858Y000856D01*
X011867Y000845D01*
X011878Y000837D01*
X011891Y000832D01*
X011905Y000830D01*
X011919Y000832D01*
X011932Y000837D01*
X011943Y000845D01*
X011952Y000856D01*
X011958Y000869D01*
X011960Y000882D01*
X011877Y002455D01*
X011878Y002455D02*
X011876Y002478D01*
X011871Y002499D01*
X011862Y002520D01*
X011850Y002540D01*
X011836Y002557D01*
X011819Y002571D01*
X011799Y002583D01*
X011778Y002592D01*
X011757Y002597D01*
X011734Y002599D01*
X011154Y002599D01*
X011155Y002599D02*
X011134Y002597D01*
X011114Y002592D01*
X011095Y002584D01*
X011077Y002574D01*
X011061Y002560D01*
X011047Y002544D01*
X011037Y002526D01*
X011029Y002507D01*
X011024Y002487D01*
X011022Y002466D01*
X012115Y002422D02*
X012181Y000976D01*
X012181Y000959D01*
X012183Y000937D01*
X012188Y000916D01*
X012196Y000896D01*
X012207Y000878D01*
X012221Y000861D01*
X012238Y000847D01*
X012256Y000836D01*
X012276Y000828D01*
X012297Y000823D01*
X012319Y000821D01*
X012926Y000821D01*
X012512Y001097D02*
X012601Y002439D01*
X012601Y002438D02*
X012603Y002450D01*
X012609Y002461D01*
X012617Y002470D01*
X012627Y002477D01*
X012638Y002481D01*
X012650Y002482D01*
X012650Y002483D02*
X012926Y002483D01*
X012231Y002428D02*
X012319Y001092D01*
X012322Y001073D01*
X012329Y001056D01*
X012338Y001040D01*
X012351Y001026D01*
X012366Y001015D01*
X012382Y001007D01*
X012400Y001002D01*
X012419Y001001D01*
X012437Y001003D01*
X012455Y001009D01*
X012471Y001018D01*
X012485Y001030D01*
X012497Y001045D01*
X012506Y001061D01*
X012511Y001079D01*
X012513Y001097D01*
X012948Y001776D02*
X012948Y003857D01*
X013318Y003857D01*
X013331Y003856D01*
X013344Y003851D01*
X013356Y003844D01*
X013366Y003834D01*
X013373Y003822D01*
X013378Y003809D01*
X013379Y003796D01*
X013379Y003796D01*
X013378Y003796D02*
X013376Y003781D01*
X013371Y003767D01*
X013364Y003755D01*
X013353Y003744D01*
X013341Y003737D01*
X013327Y003732D01*
X013312Y003730D01*
X013252Y003730D01*
X013235Y003728D01*
X013218Y003723D01*
X013203Y003715D01*
X013190Y003704D01*
X013179Y003691D01*
X013171Y003676D01*
X013166Y003659D01*
X013164Y003642D01*
X013163Y003642D02*
X013163Y003631D01*
X013164Y003631D02*
X013166Y003614D01*
X013171Y003597D01*
X013179Y003582D01*
X013190Y003569D01*
X013203Y003558D01*
X013218Y003550D01*
X013235Y003545D01*
X013252Y003543D01*
X013252Y003542D02*
X013318Y003542D01*
X013318Y003543D02*
X013332Y003541D01*
X013344Y003537D01*
X013356Y003530D01*
X013366Y003520D01*
X013373Y003508D01*
X013377Y003496D01*
X013379Y003482D01*
X013378Y003482D02*
X013376Y003467D01*
X013371Y003453D01*
X013364Y003441D01*
X013353Y003430D01*
X013341Y003423D01*
X013327Y003418D01*
X013312Y003416D01*
X013312Y003415D02*
X012970Y003415D01*
X012948Y003857D02*
X012446Y003857D01*
X012424Y003855D01*
X012403Y003850D01*
X012383Y003842D01*
X012365Y003831D01*
X012348Y003817D01*
X012334Y003800D01*
X012323Y003782D01*
X012315Y003762D01*
X012310Y003741D01*
X012308Y003719D01*
X012308Y003487D01*
X012231Y002428D02*
X012229Y002442D01*
X012223Y002454D01*
X012214Y002466D01*
X012204Y002474D01*
X012191Y002480D01*
X012177Y002483D01*
X012163Y002482D01*
X012150Y002478D01*
X012138Y002471D01*
X012128Y002461D01*
X012120Y002450D01*
X012116Y002436D01*
X012115Y002422D01*
X013164Y001550D02*
X013166Y001533D01*
X013171Y001516D01*
X013179Y001501D01*
X013190Y001488D01*
X013203Y001477D01*
X013218Y001469D01*
X013235Y001464D01*
X013252Y001462D01*
X013318Y001462D01*
X013332Y001460D01*
X013344Y001456D01*
X013356Y001449D01*
X013366Y001439D01*
X013373Y001427D01*
X013377Y001415D01*
X013379Y001401D01*
X013378Y001401D02*
X013376Y001386D01*
X013371Y001372D01*
X013364Y001360D01*
X013353Y001349D01*
X013341Y001342D01*
X013327Y001337D01*
X013312Y001335D01*
X015285Y004416D02*
X015285Y004876D01*
X015515Y004876D01*
X015591Y004800D01*
X015591Y004646D01*
X015515Y004569D01*
X015285Y004569D01*
X015438Y004569D02*
X015591Y004416D01*
X015745Y004416D02*
X016052Y004723D01*
X016052Y004800D01*
X015975Y004876D01*
X015822Y004876D01*
X015745Y004800D01*
X015745Y004416D02*
X016052Y004416D01*
X018918Y004556D02*
X018918Y004676D01*
X018918Y004616D02*
X019278Y004616D01*
X019278Y004556D02*
X019278Y004676D01*
X019278Y004801D02*
X019038Y005041D01*
X018978Y005041D01*
X018918Y004981D01*
X018918Y004861D01*
X018978Y004801D01*
X019278Y004801D02*
X019278Y005041D01*
X019218Y005170D02*
X019278Y005230D01*
X019278Y005350D01*
X019218Y005410D01*
X018978Y005410D02*
X018918Y005350D01*
X018918Y005230D01*
X018978Y005170D01*
X019218Y005170D01*
X011949Y005690D02*
X011873Y005613D01*
X011566Y005613D01*
X011489Y005690D01*
X011489Y005843D01*
X011566Y005920D01*
X011566Y006074D02*
X011489Y006150D01*
X011489Y006304D01*
X011566Y006381D01*
X011642Y006381D01*
X011949Y006074D01*
X011949Y006381D01*
X011873Y005920D02*
X011949Y005843D01*
X011949Y005690D01*
X005737Y007209D02*
X005660Y007132D01*
X005507Y007132D01*
X005430Y007209D01*
X005276Y007209D02*
X005200Y007132D01*
X005046Y007132D01*
X004970Y007209D01*
X004970Y007516D01*
X005046Y007593D01*
X005200Y007593D01*
X005276Y007516D01*
X005430Y007593D02*
X005430Y007363D01*
X005583Y007439D01*
X005660Y007439D01*
X005737Y007363D01*
X005737Y007209D01*
X005737Y007593D02*
X005430Y007593D01*
X007444Y014094D02*
X007367Y014170D01*
X007367Y014324D01*
X007444Y014400D01*
X007597Y014554D02*
X007597Y014861D01*
X007367Y014784D02*
X007597Y014554D01*
X007751Y014400D02*
X007827Y014324D01*
X007827Y014170D01*
X007751Y014094D01*
X007444Y014094D01*
X007367Y014784D02*
X007827Y014784D01*
X011327Y016531D02*
X011387Y016471D01*
X011507Y016471D01*
X011567Y016531D01*
X011567Y016771D01*
X011507Y016831D01*
X011387Y016831D01*
X011327Y016771D01*
X011327Y016531D01*
X011695Y016531D02*
X011755Y016471D01*
X011875Y016471D01*
X011935Y016531D01*
X011935Y016831D01*
X012063Y016831D02*
X012303Y016831D01*
X012183Y016831D02*
X012183Y016471D01*
X011695Y016531D02*
X011695Y016831D01*
X013656Y016862D02*
X013776Y016862D01*
X013716Y016862D02*
X013716Y016502D01*
X013656Y016502D02*
X013776Y016502D01*
X013902Y016502D02*
X013902Y016862D01*
X014142Y016502D01*
X014142Y016862D01*
X018794Y017798D02*
X019094Y017798D01*
X019154Y017858D01*
X019154Y017978D01*
X019094Y018038D01*
X018794Y018038D01*
X018914Y018166D02*
X018794Y018286D01*
X018914Y018406D01*
X019154Y018406D01*
X019154Y018534D02*
X018794Y018534D01*
X018794Y018715D01*
X018854Y018775D01*
X018974Y018775D01*
X019034Y018715D01*
X019034Y018534D01*
X019034Y018654D02*
X019154Y018775D01*
X019154Y019023D02*
X018794Y019023D01*
X018794Y018903D02*
X018794Y019143D01*
X018974Y018406D02*
X018974Y018166D01*
X018914Y018166D02*
X019154Y018166D01*
D13*
X006394Y015211D02*
X006394Y010191D01*
X004623Y010191D01*
X004623Y014325D01*
X005509Y014325D01*
X005509Y015211D01*
X006394Y015211D01*
X005509Y015211D02*
X004623Y015211D01*
X004623Y014325D01*
X004564Y006140D02*
X005450Y006140D01*
X005450Y005254D01*
X004564Y005254D01*
X004564Y006140D01*
X004564Y005254D02*
X004564Y001120D01*
X006335Y001120D01*
X006335Y006140D01*
X005450Y006140D01*
D14*
X003566Y003872D02*
X003816Y003622D01*
X003816Y003122D01*
X003566Y002872D01*
X003816Y002622D01*
X003816Y002122D01*
X003566Y001872D01*
X003816Y001622D01*
X003816Y001122D01*
X003566Y000872D01*
X003066Y000872D01*
X002816Y001122D01*
X002816Y001622D01*
X003066Y001872D01*
X002816Y002122D01*
X002816Y002622D01*
X003066Y002872D01*
X002816Y003122D01*
X002816Y003622D01*
X003066Y003872D01*
X003566Y003872D01*
X011239Y007397D02*
X011239Y012768D01*
X011409Y012938D01*
X016779Y012938D01*
X016779Y007397D01*
X011239Y007397D01*
X013781Y004498D02*
X013781Y004348D01*
X014481Y004348D01*
X014531Y004348D01*
X014531Y002198D01*
X014529Y002181D01*
X014525Y002164D01*
X014518Y002148D01*
X014508Y002134D01*
X014495Y002121D01*
X014481Y002111D01*
X014465Y002104D01*
X014448Y002100D01*
X014431Y002098D01*
X013831Y002098D01*
X013814Y002100D01*
X013797Y002104D01*
X013781Y002111D01*
X013767Y002121D01*
X013754Y002134D01*
X013744Y002148D01*
X013737Y002164D01*
X013733Y002181D01*
X013731Y002198D01*
X013731Y004348D01*
X013781Y004348D01*
X013781Y004498D02*
X014481Y004498D01*
X014481Y004348D01*
X014131Y003698D02*
X014131Y003498D01*
X013931Y003498D01*
X013931Y003348D02*
X013931Y003198D01*
X014331Y003198D01*
X014331Y003348D01*
X013931Y003348D01*
X014131Y003498D02*
X014331Y003498D01*
X014331Y003048D02*
X014131Y003048D01*
X013931Y003048D01*
X014131Y003048D02*
X014131Y002848D01*
X011474Y012483D02*
X011476Y012512D01*
X011482Y012541D01*
X011491Y012569D01*
X011505Y012595D01*
X011521Y012619D01*
X011541Y012641D01*
X011564Y012660D01*
X011588Y012676D01*
X011615Y012688D01*
X011643Y012697D01*
X011672Y012702D01*
X011701Y012703D01*
X011731Y012700D01*
X011759Y012693D01*
X011787Y012683D01*
X011812Y012668D01*
X011836Y012651D01*
X011857Y012631D01*
X011875Y012608D01*
X011890Y012582D01*
X011902Y012555D01*
X011910Y012527D01*
X011914Y012498D01*
X011914Y012468D01*
X011910Y012439D01*
X011902Y012411D01*
X011890Y012384D01*
X011875Y012358D01*
X011857Y012335D01*
X011836Y012315D01*
X011812Y012298D01*
X011787Y012283D01*
X011759Y012273D01*
X011731Y012266D01*
X011701Y012263D01*
X011672Y012264D01*
X011643Y012269D01*
X011615Y012278D01*
X011588Y012290D01*
X011564Y012306D01*
X011541Y012325D01*
X011521Y012347D01*
X011505Y012371D01*
X011491Y012397D01*
X011482Y012425D01*
X011476Y012454D01*
X011474Y012483D01*
X009914Y017900D02*
X009014Y017900D01*
X008914Y018000D01*
X008814Y017900D01*
X008014Y017900D01*
X007914Y018000D01*
X007814Y017900D01*
X007014Y017900D01*
X006914Y018000D01*
X006814Y017900D01*
X006014Y017900D01*
X005914Y018000D01*
X005814Y017900D01*
X004914Y017900D01*
X004914Y018900D01*
X005814Y018900D01*
X005914Y018800D01*
X006014Y018900D01*
X006814Y018900D01*
X006914Y018800D01*
X007014Y018900D01*
X007814Y018900D01*
X007914Y018800D01*
X008014Y018900D01*
X008814Y018900D01*
X008914Y018800D01*
X009014Y018900D01*
X009914Y018900D01*
X009914Y017900D01*
D15*
X009929Y018175D02*
X010229Y018175D01*
X010079Y018175D02*
X010079Y018625D01*
X009929Y018475D01*
X009684Y017548D02*
X009684Y017098D01*
X009534Y017398D02*
X009684Y017548D01*
X009534Y017398D02*
X009384Y017548D01*
X009384Y017098D01*
X009224Y017098D02*
X009224Y017398D01*
X009074Y017548D01*
X008924Y017398D01*
X008924Y017098D01*
X008764Y017098D02*
X008614Y017248D01*
X008689Y017248D02*
X008463Y017248D01*
X008463Y017098D02*
X008463Y017548D01*
X008689Y017548D01*
X008764Y017473D01*
X008764Y017323D01*
X008689Y017248D01*
X008924Y017323D02*
X009224Y017323D01*
X008303Y017323D02*
X008303Y017173D01*
X008228Y017098D01*
X008078Y017098D01*
X008003Y017173D01*
X008003Y017473D01*
X008078Y017548D01*
X008228Y017548D01*
X008303Y017473D01*
X008303Y017323D02*
X008153Y017323D01*
X007843Y017173D02*
X007843Y017473D01*
X007768Y017548D01*
X007618Y017548D01*
X007543Y017473D01*
X007543Y017173D01*
X007618Y017098D01*
X007768Y017098D01*
X007843Y017173D01*
X007383Y017098D02*
X007232Y017248D01*
X007307Y017248D02*
X007082Y017248D01*
X007082Y017098D02*
X007082Y017548D01*
X007307Y017548D01*
X007383Y017473D01*
X007383Y017323D01*
X007307Y017248D01*
X006922Y017323D02*
X006922Y017473D01*
X006847Y017548D01*
X006622Y017548D01*
X006622Y017098D01*
X006622Y017248D02*
X006847Y017248D01*
X006922Y017323D01*
X004679Y018250D02*
X004604Y018175D01*
X004454Y018175D01*
X004379Y018250D01*
X004379Y018400D02*
X004529Y018475D01*
X004604Y018475D01*
X004679Y018400D01*
X004679Y018250D01*
X004379Y018400D02*
X004379Y018625D01*
X004679Y018625D01*
X010902Y019314D02*
X011152Y019314D01*
X011652Y019314D02*
X011902Y019314D01*
X012652Y019314D02*
X012802Y019314D01*
X013017Y019318D02*
X013267Y019318D01*
X013767Y019318D02*
X014017Y019318D01*
X014767Y019318D02*
X014917Y019318D01*
X014517Y017168D02*
X014517Y017018D01*
X014417Y017018D01*
X014017Y017018D02*
X013017Y017018D01*
X012402Y017014D02*
X012302Y017014D01*
X012402Y017014D02*
X012402Y017164D01*
X011902Y017014D02*
X010902Y017014D01*
X003541Y004237D02*
X003541Y003937D01*
X003541Y004087D02*
X003090Y004087D01*
X003241Y003937D01*
X002579Y004226D02*
X002579Y000526D01*
X002479Y000426D01*
X001329Y000376D01*
X002239Y000606D02*
X002241Y000626D01*
X002247Y000644D01*
X002256Y000662D01*
X002268Y000677D01*
X002283Y000689D01*
X002301Y000698D01*
X002319Y000704D01*
X002339Y000706D01*
X002359Y000704D01*
X002377Y000698D01*
X002395Y000689D01*
X002410Y000677D01*
X002422Y000662D01*
X002431Y000644D01*
X002437Y000626D01*
X002439Y000606D01*
X002437Y000586D01*
X002431Y000568D01*
X002422Y000550D01*
X002410Y000535D01*
X002395Y000523D01*
X002377Y000514D01*
X002359Y000508D01*
X002339Y000506D01*
X002319Y000508D01*
X002301Y000514D01*
X002283Y000523D01*
X002268Y000535D01*
X002256Y000550D01*
X002247Y000568D01*
X002241Y000586D01*
X002239Y000606D01*
X002579Y004226D02*
X002479Y004326D01*
X001329Y004376D01*
D16*
X001029Y002376D03*
D17*
X001279Y000651D03*
X001279Y004101D03*
D18*
X001279Y002876D03*
X001279Y001876D03*
D19*
X010188Y017939D02*
X010474Y017939D01*
X010331Y017939D02*
X010331Y018370D01*
X010188Y018226D01*
X012302Y018230D02*
X012445Y018374D01*
X012445Y017943D01*
X012302Y017943D02*
X012589Y017943D01*
X012938Y017969D02*
X013224Y018256D01*
X013224Y018328D01*
X013153Y018400D01*
X013009Y018400D01*
X012938Y018328D01*
X012938Y017969D02*
X013224Y017969D01*
X015052Y017973D02*
X015339Y018260D01*
X015339Y018332D01*
X015267Y018404D01*
X015123Y018404D01*
X015052Y018332D01*
X015052Y017973D02*
X015339Y017973D01*
D20*
X014331Y004633D03*
X013931Y004633D03*
D21*
X013931Y004698D02*
X013931Y004848D01*
X014331Y004848D02*
X014331Y004648D01*
D22*
X018432Y010455D03*
X018432Y011412D03*
X018432Y012364D03*
M02*
